<?xml version="1.0" encoding="UTF-8"?>
<!DOCTYPE svg PUBLIC "-//W3C//DTD SVG 1.1//EN" "http://www.w3.org/Graphics/SVG/1.1/DTD/svg11.dtd">
<!-- Creator: CorelDRAW X7 -->
<svg xmlns="http://www.w3.org/2000/svg" xml:space="preserve" width="44mm" height="47.2488mm" version="1.1" style="shape-rendering:geometricPrecision; text-rendering:geometricPrecision; image-rendering:optimizeQuality; fill-rule:evenodd; clip-rule:evenodd"
viewBox="0 0 1045 1123"
 xmlns:xlink="http://www.w3.org/1999/xlink">
 <defs>
  <style type="text/css">
   <![CDATA[
    .fil2 {fill:#39356C}
    .fil3 {fill:#395398}
    .fil1 {fill:#396DB5}
    .fil0 {fill:#399AD2}
    .fil4 {fill:#39356C;fill-rule:nonzero}
   ]]>
  </style>
 </defs>
 <g id="Designed_x0020_by_x0020_Freepik">
  <metadata id="CorelCorpID_0Corel-Layer"/>
  <g id="_1855816680064">
   <polygon class="fil0" points="522,199 522,0 696,100 "/>
   <polygon class="fil1" points="522,199 522,0 349,100 "/>
   <polygon class="fil1" points="696,299 696,100 869,199 "/>
   <polygon class="fil2" points="349,299 349,100 175,199 "/>
   <polygon class="fil3" points="349,299 349,100 522,199 "/>
   <polygon class="fil0" points="869,398 869,199 696,299 "/>
   <polygon class="fil2" points="175,398 175,199 349,299 "/>
   <polygon class="fil1" points="696,498 696,299 869,398 "/>
   <polygon class="fil1" points="349,498 349,299 175,398 "/>
   <polygon class="fil3" points="696,498 696,299 522,398 "/>
   <polygon class="fil3" points="869,598 869,398 696,498 "/>
   <polygon class="fil3" points="175,598 175,398 349,498 "/>
   <polygon class="fil2" points="696,697 696,498 869,598 "/>
   <polygon class="fil2" points="349,697 349,498 175,598 "/>
   <polygon class="fil3" points="696,697 696,498 522,598 "/>
   <polygon class="fil0" points="522,797 522,598 696,697 "/>
   <path class="fil4" d="M0 1121l18 0 0 -65 111 0 0 -16 -111 0 0 -45 116 0 0 -16 -134 0 0 142zm123 0l20 0 19 -31 112 0 18 31 19 0 -82 -142 -23 0 -83 142zm47 -46l47 -82 48 82 -95 0zm217 48l44 0c24,0 40,-1 49,-9 9,-8 11,-18 11,-35 0,-2 0,-4 0,-7l-16 0 0 4c0,24 -9,30 -34,30l-61 0c-16,0 -25,-2 -31,-10 -5,-7 -5,-16 -5,-27l0 -38c0,-12 0,-21 5,-27 6,-8 15,-11 31,-11l61 0c24,0 33,8 33,30l0 2 16 0c0,-3 0,-5 0,-7 0,-33 -16,-40 -59,-40l-44 0c-23,0 -38,1 -48,10 -10,8 -14,22 -14,44l0 39c0,20 4,33 14,42 10,9 26,10 48,10zm152 -2l0 -142 -17 0 0 142 17 0zm36 0l127 0 0 -16 -109 0 0 -126 -18 0 0 142zm167 0l22 0 0 -26 -22 0 0 26zm92 0l0 -142 -17 0 0 142 17 0zm154 -128c17,0 27,2 33,11 5,6 5,14 5,25l0 41c0,11 0,20 -5,26 -6,8 -16,10 -33,10l-64 0c-16,0 -26,-2 -32,-10 -5,-7 -6,-16 -6,-28l0 -37c0,-12 1,-20 6,-27 6,-9 16,-11 32,-11l64 0zm-55 130l47 0c24,0 40,-2 51,-10 11,-8 14,-22 14,-43l0 -40c0,-21 -4,-34 -14,-42 -10,-9 -27,-10 -51,-10l-47 0c-24,0 -41,1 -51,10 -11,8 -14,22 -14,44l0 39c0,20 3,33 14,42 11,8 27,10 51,10z"/>
  </g>
 </g>
</svg>
