<?xml version="1.0" encoding="UTF-8"?>
<!DOCTYPE svg PUBLIC "-//W3C//DTD SVG 1.1//EN" "http://www.w3.org/Graphics/SVG/1.1/DTD/svg11.dtd">
<!-- Creator: CorelDRAW X7 -->
<svg xmlns="http://www.w3.org/2000/svg" xml:space="preserve" width="98.1875mm" height="33.5378mm" version="1.1" style="shape-rendering:geometricPrecision; text-rendering:geometricPrecision; image-rendering:optimizeQuality; fill-rule:evenodd; clip-rule:evenodd"
viewBox="0 0 97453 33287"
 xmlns:xlink="http://www.w3.org/1999/xlink">
 <defs>
  <style type="text/css">
   <![CDATA[
    .fil2 {fill:#39356C}
    .fil3 {fill:#395398}
    .fil1 {fill:#396DB5}
    .fil0 {fill:#399AD2}
    .fil4 {fill:#39356C;fill-rule:nonzero}
   ]]>
  </style>
 </defs>
 <g id="Designed_x0020_by_x0020_Freepik">
  <metadata id="CorelCorpID_0Corel-Layer"/>
  <g id="_1855823513696">
   <polygon class="fil0" points="14491,8322 14491,0 21737,4161 "/>
   <polygon class="fil1" points="14491,8322 14491,0 7246,4161 "/>
   <polygon class="fil1" points="21737,12483 21737,4161 28983,8322 "/>
   <polygon class="fil2" points="7246,12483 7246,4161 0,8322 "/>
   <polygon class="fil3" points="7246,12483 7246,4161 14491,8322 "/>
   <polygon class="fil0" points="28983,16643 28983,8322 21737,12483 "/>
   <polygon class="fil2" points="0,16643 0,8322 7246,12483 "/>
   <polygon class="fil1" points="21737,20804 21737,12483 28983,16643 "/>
   <polygon class="fil1" points="7246,20804 7246,12483 0,16643 "/>
   <polygon class="fil3" points="21737,20804 21737,12483 14491,16643 "/>
   <polygon class="fil3" points="28983,24965 28983,16643 21737,20804 "/>
   <polygon class="fil3" points="0,24965 0,16643 7246,20804 "/>
   <polygon class="fil2" points="21737,29126 21737,20804 28983,24965 "/>
   <polygon class="fil2" points="7246,29126 7246,20804 0,24965 "/>
   <polygon class="fil3" points="21737,29126 21737,20804 14491,24965 "/>
   <polygon class="fil0" points="14491,33287 14491,24965 21737,29126 "/>
   <path class="fil4" d="M36201 20860l1036 0 0 -3816 6528 0 0 -900 -6528 0 0 -2643 6789 0 0 -922 -7825 0 0 8281zm7233 0l1174 0 1059 -1823 6584 0 1082 1823 1094 0 -4819 -8281 -1367 0 -4807 8281zm2734 -2700l2768 -4761 2814 4761 -5582 0zm12690 2803l2597 0c1402,0 2336,-57 2882,-524 502,-422 661,-1048 661,-2005 0,-126 -11,-262 -11,-410l-946 0 0 227c0,1379 -524,1755 -2027,1755l-3577 0c-889,0 -1447,-137 -1777,-604 -285,-399 -296,-911 -296,-1606l0 -2199c0,-695 11,-1207 296,-1606 330,-467 888,-604 1777,-604l3588 0c1412,0 1937,433 1937,1743l0 126 934 0c11,-160 11,-308 11,-445 0,-1902 -945,-2335 -3452,-2335l-2608 0c-1322,0 -2210,80 -2802,581 -593,501 -787,1333 -787,2609l0 2255c0,1173 194,1959 787,2461 615,524 1515,581 2813,581zm8931 -103l0 -8281 -1025 0 0 8281 1025 0zm2108 0l7461 0 0 -911 -6436 0 0 -7370 -1025 0 0 8281zm9785 0l1287 0 0 -1504 -1287 0 0 1504zm5411 0l0 -8281 -1025 0 0 8281 1025 0zm9022 -7473c945,0 1549,126 1914,604 284,376 307,854 307,1492l0 2427c0,638 -23,1116 -307,1492 -365,478 -969,604 -1914,604l-3748 0c-945,0 -1549,-126 -1914,-604 -307,-410 -319,-923 -319,-1618l0 -2175c0,-695 12,-1208 319,-1618 365,-478 969,-604 1914,-604l3748 0zm-3247 7576l2757 0c1401,0 2358,-69 2996,-581 604,-479 832,-1288 832,-2506l0 -2313c0,-1230 -240,-2039 -832,-2506 -627,-501 -1595,-581 -2996,-581l-2768 0c-1401,0 -2370,80 -2996,581 -627,501 -832,1333 -832,2609l0 2255c0,1185 217,1959 843,2461 650,512 1606,581 2996,581z"/>
  </g>
 </g>
</svg>
