<?xml version="1.0" encoding="UTF-8"?>
<!DOCTYPE svg PUBLIC "-//W3C//DTD SVG 1.1//EN" "http://www.w3.org/Graphics/SVG/1.1/DTD/svg11.dtd">
<!-- Creator: CorelDRAW X7 -->
<svg xmlns="http://www.w3.org/2000/svg" xml:space="preserve" width="90.2245mm" height="32.5552mm" version="1.1" style="shape-rendering:geometricPrecision; text-rendering:geometricPrecision; image-rendering:optimizeQuality; fill-rule:evenodd; clip-rule:evenodd"
viewBox="0 0 69354 25025"
 xmlns:xlink="http://www.w3.org/1999/xlink">
 <defs>
  <style type="text/css">
   <![CDATA[
    .fil0 {fill:#FEFEFE}
    .fil3 {fill:#39356C}
    .fil4 {fill:#395398}
    .fil2 {fill:#396DB5}
    .fil1 {fill:#399AD2}
    .fil5 {fill:#FEFEFE;fill-rule:nonzero}
   ]]>
  </style>
 </defs>
 <g id="Designed_x0020_by_x0020_Freepik">
  <metadata id="CorelCorpID_0Corel-Layer"/>
  <g id="_1855816701088">
   <polygon class="fil0" points="10896,0 21791,6254 21791,18770 10896,25025 0,18770 0,6254 "/>
   <polygon class="fil1" points="10876,6661 10876,800 15978,3731 "/>
   <polygon class="fil2" points="10876,6661 10876,800 5773,3731 "/>
   <polygon class="fil2" points="15978,9591 15978,3731 21081,6661 "/>
   <polygon class="fil3" points="5773,9591 5773,3731 670,6661 "/>
   <polygon class="fil4" points="5773,9591 5773,3731 10876,6661 "/>
   <polygon class="fil1" points="21081,12521 21081,6661 15978,9591 "/>
   <polygon class="fil3" points="670,12521 670,6661 5773,9591 "/>
   <polygon class="fil2" points="15978,15452 15978,9591 21081,12521 "/>
   <polygon class="fil2" points="5773,15452 5773,9591 670,12521 "/>
   <polygon class="fil4" points="15978,15452 15978,9591 10876,12521 "/>
   <polygon class="fil4" points="21081,18382 21081,12521 15978,15452 "/>
   <polygon class="fil4" points="670,18382 670,12521 5773,15452 "/>
   <polygon class="fil3" points="15978,21312 15978,15452 21081,18382 "/>
   <polygon class="fil3" points="5773,21312 5773,15452 670,18382 "/>
   <polygon class="fil4" points="15978,21312 15978,15452 10876,18382 "/>
   <polygon class="fil1" points="10876,24242 10876,18382 15978,21312 "/>
   <path class="fil5" d="M26260 15454l730 0 0 -2685 4592 0 0 -633 -4592 0 0 -1859 4776 0 0 -650 -5506 0 0 5827zm5089 0l826 0 745 -1282 4633 0 761 1282 769 0 -3390 -5827 -962 0 -3382 5827zm1924 -1900l1947 -3350 1980 3350 -3927 0zm8928 1972l1827 0c986,0 1643,-40 2028,-369 352,-296 465,-737 465,-1410 0,-88 -8,-185 -8,-289l-666 0 0 161c0,969 -368,1234 -1426,1234l-2517 0c-625,0 -1017,-96 -1250,-425 -200,-281 -208,-641 -208,-1130l0 -1547c0,-489 8,-849 208,-1130 233,-328 625,-425 1250,-425l2525 0c994,0 1362,305 1362,1227l0 88 658 0c8,-112 8,-217 8,-313 0,-1338 -666,-1643 -2429,-1643l-1835 0c-930,0 -1555,56 -1972,409 -416,353 -553,938 -553,1835l0 1587c0,826 137,1379 553,1731 433,369 1066,409 1980,409zm6283 -72l0 -5827 -721 0 0 5827 721 0zm1483 0l5249 0 0 -641 -4528 0 0 -5186 -721 0 0 5827zm6884 0l906 0 0 -1058 -906 0 0 1058zm3807 0l0 -5827 -721 0 0 5827 721 0zm6347 -5258c666,0 1090,89 1347,425 200,265 216,601 216,1050l0 1707c0,449 -16,786 -216,1050 -257,337 -681,425 -1347,425l-2636 0c-665,0 -1090,-88 -1347,-425 -216,-289 -224,-649 -224,-1138l0 -1531c0,-489 8,-849 224,-1138 257,-336 682,-425 1347,-425l2636 0zm-2284 5330l1940 0c986,0 1659,-48 2108,-409 424,-336 585,-905 585,-1763l0 -1627c0,-865 -169,-1434 -585,-1763 -441,-353 -1122,-409 -2108,-409l-1948 0c-985,0 -1667,56 -2107,409 -441,353 -585,938 -585,1835l0 1587c0,834 152,1379 593,1731 456,361 1130,409 2107,409z"/>
  </g>
 </g>
</svg>
