<?xml version="1.0" encoding="UTF-8"?>
<!DOCTYPE svg PUBLIC "-//W3C//DTD SVG 1.1//EN" "http://www.w3.org/Graphics/SVG/1.1/DTD/svg11.dtd">
<!-- Creator: CorelDRAW X7 -->
<svg xmlns="http://www.w3.org/2000/svg" xml:space="preserve" width="44.8263mm" height="49.6919mm" version="1.1" style="shape-rendering:geometricPrecision; text-rendering:geometricPrecision; image-rendering:optimizeQuality; fill-rule:evenodd; clip-rule:evenodd"
viewBox="0 0 1112 1233"
 xmlns:xlink="http://www.w3.org/1999/xlink">
 <defs>
  <style type="text/css">
   <![CDATA[
    .fil2 {fill:none}
    .fil1 {fill:#FEFEFE}
    .fil0 {fill:#FEFEFE}
    .fil5 {fill:#39356C}
    .fil6 {fill:#395398}
    .fil4 {fill:#396DB5}
    .fil3 {fill:#399AD2}
    .fil7 {fill:#FEFEFE;fill-rule:nonzero}
   ]]>
  </style>
 </defs>
 <g id="Designed_x0020_by_x0020_Freepik">
  <metadata id="CorelCorpID_0Corel-Layer"/>
  <g id="_1855817456224">
   <polygon class="fil0" points="555,0 958,231 958,693 555,925 153,693 153,231 "/>
   <polygon class="fil1" points="740,356 740,145 556,250 "/>
   <polygon class="fil2" points="556,462 556,250 740,356 "/>
   <polygon class="fil3" points="556,250 556,39 740,145 "/>
   <polygon class="fil4" points="556,250 556,39 371,145 "/>
   <polygon class="fil4" points="740,356 740,145 925,250 "/>
   <polygon class="fil5" points="371,356 371,145 187,250 "/>
   <polygon class="fil6" points="371,356 371,145 556,250 "/>
   <polygon class="fil3" points="925,462 925,250 740,356 "/>
   <polygon class="fil5" points="187,462 187,250 371,356 "/>
   <polygon class="fil4" points="740,568 740,356 925,462 "/>
   <polygon class="fil4" points="371,568 371,356 187,462 "/>
   <polygon class="fil6" points="740,568 740,356 556,462 "/>
   <polygon class="fil4" points="925,674 925,462 740,568 "/>
   <polygon class="fil6" points="187,674 187,462 371,568 "/>
   <polygon class="fil5" points="740,780 740,568 925,674 "/>
   <polygon class="fil5" points="371,780 371,568 187,674 "/>
   <polygon class="fil6" points="740,780 740,568 556,674 "/>
   <polygon class="fil3" points="556,886 556,674 740,780 "/>
   <path class="fil7" d="M0 1231l19 0 0 -69 118 0 0 -17 -118 0 0 -48 123 0 0 -17 -142 0 0 151zm131 0l22 0 19 -33 119 0 20 33 20 0 -88 -151 -24 0 -88 151zm50 -49l50 -87 51 87 -101 0zm230 51l47 0c26,0 43,-1 53,-10 9,-8 12,-19 12,-36 0,-3 0,-5 0,-8l-18 0 0 4c0,25 -9,32 -36,32l-65 0c-16,0 -27,-2 -33,-11 -5,-7 -5,-16 -5,-29l0 -40c0,-12 0,-22 5,-29 6,-8 17,-11 33,-11l65 0c25,0 35,8 35,32l0 2 17 0c0,-3 0,-6 0,-8 0,-35 -17,-42 -63,-42l-47 0c-24,0 -40,1 -51,10 -11,9 -14,24 -14,47l0 41c0,22 3,36 14,45 11,10 28,11 51,11zm162 -2l0 -151 -18 0 0 151 18 0zm39 0l135 0 0 -17 -117 0 0 -134 -18 0 0 151zm177 0l24 0 0 -28 -24 0 0 28zm99 0l0 -151 -19 0 0 151 19 0zm163 -136c18,0 28,2 35,11 5,7 6,16 6,27l0 44c0,12 -1,21 -6,27 -7,9 -17,11 -35,11l-68 0c-17,0 -28,-2 -34,-11 -6,-7 -6,-16 -6,-29l0 -40c0,-12 0,-21 6,-29 6,-9 17,-11 34,-11l68 0zm-59 138l50 0c26,0 43,-2 55,-11 11,-9 15,-23 15,-45l0 -42c0,-23 -4,-37 -15,-46 -12,-9 -29,-10 -55,-10l-50 0c-25,0 -43,1 -54,10 -12,9 -15,24 -15,47l0 41c0,22 4,36 15,45 12,9 29,11 54,11z"/>
  </g>
 </g>
</svg>
