<?xml version="1.0" encoding="UTF-8"?>
<!DOCTYPE svg PUBLIC "-//W3C//DTD SVG 1.1//EN" "http://www.w3.org/Graphics/SVG/1.1/DTD/svg11.dtd">
<!-- Creator: CorelDRAW X7 -->
<svg xmlns="http://www.w3.org/2000/svg" xml:space="preserve" width="34.452mm" height="39.5764mm" version="1.1" style="shape-rendering:geometricPrecision; text-rendering:geometricPrecision; image-rendering:optimizeQuality; fill-rule:evenodd; clip-rule:evenodd"
viewBox="0 0 2613 3001"
 xmlns:xlink="http://www.w3.org/1999/xlink">
 <defs>
  <style type="text/css">
   <![CDATA[
    .fil1 {fill:#FEFEFE}
    .fil0 {fill:#39356C}
    .fil4 {fill:#395398}
    .fil3 {fill:#396DB5}
    .fil2 {fill:#399AD2}
   ]]>
  </style>
 </defs>
 <g id="Designed_x0020_by_x0020_Freepik">
  <metadata id="CorelCorpID_0Corel-Layer"/>
  <g id="_1855817696880">
   <polygon class="fil0" points="1306,0 2613,750 2613,2251 1306,3001 0,2251 0,750 "/>
   <polygon class="fil1" points="1306,87 2537,794 2537,2207 1306,2914 76,2207 76,794 "/>
   <polygon class="fil2" points="1307,853 1307,205 1871,529 "/>
   <polygon class="fil3" points="1307,853 1307,205 743,529 "/>
   <polygon class="fil3" points="1871,1177 1871,529 2435,853 "/>
   <polygon class="fil0" points="743,1177 743,529 179,853 "/>
   <polygon class="fil4" points="743,1177 743,529 1307,853 "/>
   <polygon class="fil2" points="2435,1501 2435,853 1871,1177 "/>
   <polygon class="fil0" points="179,1501 179,853 743,1177 "/>
   <polygon class="fil3" points="1871,1825 1871,1177 2435,1501 "/>
   <polygon class="fil3" points="743,1825 743,1177 179,1501 "/>
   <polygon class="fil4" points="1871,1825 1871,1177 1307,1501 "/>
   <polygon class="fil3" points="2435,2149 2435,1501 1871,1825 "/>
   <polygon class="fil4" points="179,2149 179,1501 743,1825 "/>
   <polygon class="fil0" points="1871,2473 1871,1825 2435,2149 "/>
   <polygon class="fil0" points="743,2473 743,1825 179,2149 "/>
   <polygon class="fil4" points="1871,2473 1871,1825 1307,2149 "/>
   <polygon class="fil2" points="1307,2797 1307,2149 1871,2473 "/>
  </g>
 </g>
</svg>
