<?xml version="1.0" encoding="UTF-8"?>
<!DOCTYPE svg PUBLIC "-//W3C//DTD SVG 1.1//EN" "http://www.w3.org/Graphics/SVG/1.1/DTD/svg11.dtd">
<!-- Creator: CorelDRAW X7 -->
<svg xmlns="http://www.w3.org/2000/svg" xml:space="preserve" width="32.4522mm" height="37.2704mm" version="1.1" style="shape-rendering:geometricPrecision; text-rendering:geometricPrecision; image-rendering:optimizeQuality; fill-rule:evenodd; clip-rule:evenodd"
viewBox="0 0 1384 1590"
 xmlns:xlink="http://www.w3.org/1999/xlink">
 <defs>
  <style type="text/css">
   <![CDATA[
    .fil0 {fill:#FEFEFE}
    .fil3 {fill:#39356C}
    .fil4 {fill:#395398}
    .fil2 {fill:#396DB5}
    .fil1 {fill:#399AD2}
   ]]>
  </style>
 </defs>
 <g id="Designed_x0020_by_x0020_Freepik">
  <metadata id="CorelCorpID_0Corel-Layer"/>
  <polygon class="fil0" points="692,0 1384,397 1384,1193 692,1590 0,1193 0,397 "/>
  <polygon class="fil1" points="693,431 693,66 1010,249 "/>
  <polygon class="fil2" points="693,431 693,66 375,249 "/>
  <polygon class="fil2" points="1010,613 1010,249 1327,431 "/>
  <polygon class="fil3" points="375,613 375,249 58,431 "/>
  <polygon class="fil4" points="375,613 375,249 693,431 "/>
  <polygon class="fil1" points="1327,795 1327,431 1010,613 "/>
  <polygon class="fil3" points="58,795 58,431 375,613 "/>
  <polygon class="fil2" points="1010,977 1010,613 1327,795 "/>
  <polygon class="fil2" points="375,977 375,613 58,795 "/>
  <polygon class="fil4" points="1010,977 1010,613 693,795 "/>
  <polygon class="fil2" points="1327,1159 1327,795 1010,977 "/>
  <polygon class="fil4" points="58,1159 58,795 375,977 "/>
  <polygon class="fil3" points="1010,1342 1010,977 1327,1159 "/>
  <polygon class="fil3" points="375,1342 375,977 58,1159 "/>
  <polygon class="fil4" points="1010,1342 1010,977 693,1159 "/>
  <polygon class="fil1" points="693,1524 693,1159 1010,1342 "/>
 </g>
</svg>
